<?xml version="1.0" standalone="no"?>
<!DOCTYPE svg PUBLIC "-//W3C//DTD SVG 20010904//EN"
 "http://www.w3.org/TR/2001/REC-SVG-20010904/DTD/svg10.dtd">
<svg version="1.0" xmlns="http://www.w3.org/2000/svg"
 width="260.000000pt" height="260.000000pt" viewBox="0 0 260.000000 260.000000"
 preserveAspectRatio="xMidYMid meet">
<metadata>
Created by potrace 1.11, written by Peter Selinger 2001-2013
</metadata>
<g transform="translate(0.000000,260.000000) scale(0.100000,-0.100000)"
fill="#000000" stroke="none">
<path d="M1152 2470 c-35 -5 -82 -15 -105 -23 -23 -8 -67 -20 -97 -27 -79 -18
-250 -95 -312 -141 -29 -21 -69 -49 -88 -62 -104 -71 -282 -295 -336 -422 -77
-184 -106 -316 -106 -495 0 -267 84 -503 255 -715 42 -52 167 -175 178 -175 4
0 28 -18 55 -40 67 -55 249 -143 374 -180 94 -29 122 -32 275 -37 199 -6 291
4 425 47 126 41 164 59 295 142 135 86 249 199 339 336 73 111 93 151 136 277
41 118 54 211 54 375 0 156 -14 229 -81 408 -20 51 -46 108 -59 128 -13 19
-24 39 -24 44 0 15 -154 203 -197 241 -98 85 -251 187 -322 213 -20 8 -61 24
-91 36 -129 50 -230 71 -370 75 -74 2 -163 0 -198 -5z m316 -20 c102 -17 295
-77 363 -113 327 -173 519 -406 612 -747 24 -85 28 -116 34 -240 12 -260 -69
-515 -233 -730 -44 -58 -181 -195 -224 -223 -14 -10 -41 -28 -61 -41 -67 -45
-204 -112 -284 -139 -165 -55 -381 -70 -581 -38 -306 47 -608 243 -782 506
-135 205 -196 418 -187 650 7 196 46 344 132 500 21 39 44 82 52 97 27 53 174
210 248 266 154 117 255 169 413 213 190 53 342 65 498 39z"/>
<path d="M1175 2264 c-72 -11 -232 -59 -336 -102 -103 -42 -271 -186 -346
-297 -141 -208 -198 -385 -189 -585 2 -47 6 -96 10 -110 3 -14 8 -36 10 -50
26 -155 129 -352 250 -478 95 -100 294 -219 426 -255 98 -27 280 -49 360 -44
181 13 324 57 467 144 314 189 496 542 463 894 -5 52 -14 108 -20 123 -5 15
-10 36 -10 46 0 31 -70 187 -111 247 -21 32 -55 82 -74 111 -47 69 -238 221
-327 259 -50 22 -172 60 -248 78 -73 17 -264 28 -325 19z m228 -84 c18 -35 19
-89 2 -280 -2 -25 -7 -81 -10 -125 -8 -90 -10 -96 -30 -89 -12 5 -13 42 -8
230 4 151 3 224 -4 224 -27 0 -33 -32 -33 -171 -1 -79 -2 -155 -4 -169 -2 -14
-4 -44 -5 -67 -1 -31 -5 -43 -16 -43 -17 0 -17 -17 -15 298 1 128 3 239 6 247
5 12 13 11 52 -3 35 -13 52 -26 65 -52z m-157 -170 c1 -259 -4 -325 -26 -325
-13 0 -15 30 -15 212 0 130 -4 212 -10 210 -13 -3 -13 -14 -15 -234 -1 -185
-2 -193 -22 -208 -12 -8 -24 -12 -27 -10 -10 11 -11 478 -1 509 12 35 65 76
95 73 19 -2 20 -10 21 -227z m-210 158 c40 -19 54 -60 54 -155 -1 -82 -2 -87
-16 -68 -9 11 -32 53 -52 94 -21 42 -38 67 -40 58 -2 -9 16 -58 41 -109 64
-135 68 -150 65 -208 l-3 -53 -36 74 c-20 41 -51 106 -69 144 -18 39 -47 101
-66 140 -35 73 -33 90 9 98 30 5 88 -3 113 -15z m613 6 c3 -3 -20 -56 -52
-118 -31 -63 -57 -119 -57 -125 0 -6 -4 -11 -10 -11 -5 0 -10 -7 -10 -16 0
-25 -80 -165 -91 -159 -10 7 -3 75 14 120 12 34 57 129 92 195 27 51 31 72 12
64 -7 -2 -33 -46 -57 -96 -50 -101 -57 -97 -41 27 8 69 13 82 37 100 15 11 39
23 53 27 26 7 101 1 110 -8z m82 -42 c26 -23 32 -38 37 -81 l5 -53 -64 -64
c-63 -64 -87 -79 -71 -46 43 86 72 151 72 161 0 26 -21 8 -41 -36 -70 -159
-93 -197 -147 -248 -31 -30 -58 -52 -61 -50 -4 5 175 369 207 423 18 28 25 28
63 -6z m-851 -12 c0 -5 25 -62 56 -127 101 -210 113 -238 120 -268 7 -28 4
-27 -48 25 -40 41 -63 76 -86 133 -38 90 -70 147 -83 147 -6 0 -6 -7 -1 -17
43 -81 72 -169 55 -162 -25 10 -133 139 -133 158 0 57 78 153 106 130 8 -6 14
-15 14 -19z m1069 -121 c17 -6 31 -15 31 -19 0 -12 -109 -125 -149 -155 -19
-13 -66 -55 -105 -93 -79 -76 -149 -132 -164 -132 -5 0 -15 6 -21 14 -9 11 21
44 149 167 88 85 156 155 150 157 -9 3 -49 -32 -230 -205 -95 -92 -115 -104
-137 -82 -8 8 12 33 75 93 173 164 255 236 271 236 10 0 21 4 27 9 5 5 20 11
34 14 14 2 28 5 31 6 3 0 20 -4 38 -10z m-1253 -19 c15 0 47 -22 90 -62 36
-35 73 -67 80 -71 8 -5 60 -54 115 -109 94 -95 114 -128 75 -128 -15 0 -88 59
-136 109 -47 49 -204 180 -209 175 -3 -3 14 -24 39 -46 25 -22 92 -84 149
-137 56 -53 107 -97 112 -99 12 -5 11 -39 -1 -47 -10 -6 -136 94 -240 192 -25
23 -63 55 -85 71 -62 46 -120 111 -110 121 19 19 70 41 83 36 8 -3 24 -5 38
-5z m1330 -31 c17 -29 22 -84 10 -113 -13 -31 -146 -163 -214 -213 -38 -28
-112 -94 -140 -125 -19 -21 -32 -14 -32 15 0 26 23 52 105 122 82 70 205 188
201 193 -9 9 -56 -26 -131 -98 -164 -156 -225 -200 -225 -159 0 6 19 27 41 47
40 35 158 146 298 279 69 66 76 70 87 52z m-1409 -84 c31 -27 89 -79 128 -115
38 -36 92 -83 119 -105 61 -50 116 -105 116 -115 0 -4 -7 -13 -15 -20 -17 -14
-14 -15 -100 60 -22 19 -60 51 -84 70 -25 19 -74 63 -110 97 -63 60 -81 72
-81 55 0 -7 117 -116 168 -157 72 -57 182 -161 182 -171 0 -37 -37 -17 -135
71 -22 19 -67 57 -99 83 -166 132 -204 183 -185 244 6 18 13 39 15 46 6 19 16
14 81 -43z m1500 -124 c23 -11 49 -31 59 -46 16 -25 16 -26 -2 -40 -10 -7 -30
-17 -43 -20 -27 -7 -189 -68 -241 -92 -19 -8 -36 -14 -38 -14 -1 1 -15 -5 -30
-13 -33 -18 -94 -38 -99 -32 -3 2 18 27 46 54 46 45 61 53 168 87 65 21 125
44 133 51 21 21 4 17 -94 -17 -90 -31 -114 -33 -74 -7 13 9 45 36 71 62 55 52
78 56 144 27z m-1554 -33 c19 -18 52 -46 73 -62 21 -17 33 -31 28 -33 -9 -3
-91 22 -136 42 -11 4 -18 3 -18 -3 0 -6 30 -20 68 -33 37 -12 72 -25 77 -29 6
-4 28 -13 50 -20 22 -7 62 -32 89 -56 l50 -43 -70 23 c-38 13 -109 42 -157 65
-49 23 -94 41 -100 41 -7 1 -30 9 -52 20 -22 11 -45 19 -52 20 -24 0 -24 22 1
55 41 53 99 58 149 13z m1649 -80 c11 -30 -3 -92 -26 -122 -28 -38 -59 -46
-176 -46 -78 0 -82 7 -15 29 22 7 59 21 82 32 24 10 47 19 53 19 5 0 10 5 10
11 0 6 -6 9 -12 6 -87 -33 -294 -97 -330 -103 -64 -8 -61 7 5 29 28 10 71 28
95 39 55 26 284 116 298 117 7 1 14 -5 16 -11z m-1756 -22 c129 -52 189 -78
199 -86 11 -9 77 -34 133 -51 47 -14 33 -22 -37 -21 -60 0 -158 29 -268 77
-29 13 -53 21 -53 17 0 -8 32 -25 104 -56 21 -9 36 -19 34 -22 -3 -2 -37 -7
-75 -10 -68 -6 -71 -5 -97 22 -14 16 -27 36 -27 44 -5 52 -4 71 3 89 9 26 11
26 84 -3z m1754 -198 c17 -11 60 -77 60 -92 0 -3 -126 -6 -280 -6 -246 0 -281
2 -287 16 -12 31 13 35 215 34 128 0 203 3 207 10 4 7 -58 10 -189 10 -108 0
-199 0 -203 1 -20 3 -43 21 -43 34 0 11 37 14 207 15 114 0 208 2 210 4 6 6
82 -13 103 -26z m-1348 6 c47 -5 55 -9 50 -23 -3 -9 -9 -19 -14 -22 -5 -3
-117 -4 -251 -1 -154 2 -238 0 -232 -6 8 -8 280 -22 438 -22 40 0 47 -3 47
-20 0 -14 -7 -20 -22 -21 -13 0 -143 -2 -290 -5 l-268 -5 0 31 c0 37 51 95 90
103 30 6 370 -1 452 -9z m874 -135 c4 -8 9 -7 15 2 8 11 12 10 24 -5 13 -17
19 -15 17 5 -1 3 6 6 13 6 12 0 12 -3 3 -15 -10 -12 -8 -13 14 -10 15 1 27 -1
27 -6 -1 -5 5 -13 13 -18 8 -6 4 -7 -12 -2 -14 4 -34 7 -46 6 -13 -1 -26 7
-33 21 l-12 22 5 -22 c5 -28 -10 -30 -26 -3 -7 11 -17 20 -21 20 -5 0 -5 -9
-2 -20 3 -11 2 -20 -3 -20 -7 0 -10 35 -3 48 3 6 21 1 27 -9z m259 -3 c34 -13
45 -16 45 -10 0 2 -9 8 -20 12 -10 4 41 8 115 8 103 1 135 -2 135 -12 0 -31
-22 -65 -60 -90 -35 -23 -42 -25 -57 -13 -9 8 -14 9 -10 3 4 -7 1 -14 -6 -16
-22 -9 -407 -9 -407 -1 0 5 15 8 32 8 37 0 52 29 20 37 -11 3 -19 1 -18 -6 0
-6 -3 -12 -9 -13 -5 -2 -10 5 -10 14 0 14 11 17 73 18 40 0 68 -1 63 -3 -8 -3
-8 -10 0 -24 10 -18 9 -19 -11 -8 -15 8 -20 8 -16 1 4 -6 1 -11 -8 -11 -8 0
-18 5 -22 12 -5 7 -3 8 6 3 9 -5 11 -4 6 3 -11 19 -26 14 -26 -8 0 -18 7 -20
58 -20 35 0 52 4 44 9 -8 5 -12 17 -10 27 2 14 10 18 28 16 31 -5 34 -8 25
-22 -5 -8 -13 -6 -26 6 -18 16 -19 16 -13 1 3 -9 10 -17 16 -17 5 0 6 -4 3
-10 -3 -5 -2 -10 4 -10 5 0 12 6 15 13 5 10 7 10 12 0 3 -7 10 -13 16 -13 7 0
6 5 -1 14 -10 11 -8 17 6 26 17 11 17 11 0 6 -11 -3 -15 -2 -12 4 10 16 35 12
35 -6 0 -8 5 -12 10 -9 6 4 8 11 5 16 -4 5 20 9 56 9 34 0 59 3 55 8 -8 7 -13
8 -41 11 -8 0 -14 6 -12 13 1 6 -7 13 -18 15 -15 2 -16 1 -5 -5 8 -4 16 -12
17 -18 2 -13 -125 -16 -133 -3 -3 5 -11 6 -17 2 -19 -12 -36 -12 -44 -1 -3 6
-1 8 4 5 6 -4 14 0 17 9 3 9 2 12 -5 9 -13 -8 -42 2 -36 12 6 10 105 9 132 -1z
m-1288 -10 c-4 -10 3 -13 31 -10 20 2 31 1 25 -2 -7 -3 -13 -12 -13 -20 0 -8
-4 -14 -10 -14 -5 0 -7 6 -4 14 4 10 -2 12 -20 9 -14 -3 -26 -3 -26 0 0 11 12
37 17 37 3 0 3 -6 0 -14z m43 10 c0 -2 -7 -6 -15 -10 -8 -3 -15 -1 -15 4 0 6
7 10 15 10 8 0 15 -2 15 -4z m-369 -18 c0 -9 2 -9 6 1 4 11 10 8 24 -10 15
-18 18 -19 12 -5 -4 13 -3 17 5 12 7 -4 12 -3 12 3 0 6 7 8 15 5 8 -4 15 -13
15 -22 0 -8 3 -12 8 -8 4 4 7 12 7 17 0 5 3 9 8 9 4 0 7 -2 7 -5 0 -3 0 -12 0
-20 0 -9 -10 -15 -26 -15 -19 0 -25 4 -20 15 3 8 0 15 -5 15 -6 0 -9 -9 -6
-20 3 -12 -1 -24 -11 -30 -13 -8 -10 -9 12 -4 25 6 28 4 23 -10 -4 -10 -7 -22
-7 -27 0 -6 -9 -5 -21 2 -15 8 -19 8 -15 0 12 -20 -33 -12 -54 9 -11 11 -20
17 -20 13 0 -20 -26 36 -28 60 -2 24 2 27 28 27 17 0 30 -5 31 -12z m154 3
c-3 -5 8 -9 24 -9 17 1 28 5 25 9 -2 4 5 7 16 6 11 -1 20 -5 20 -9 0 -4 14 -5
32 -1 31 6 31 6 12 -13 -10 -11 -21 -17 -24 -13 -7 9 -61 9 -55 0 2 -4 -14 -8
-36 -10 -23 -1 -39 2 -36 6 2 4 7 16 10 26 4 9 9 17 12 17 4 0 4 -4 0 -9z
m334 -5 c-11 -10 -89 -15 -89 -6 0 5 21 10 47 10 25 0 44 -2 42 -4z m-179 -32
c0 -2 -7 -4 -15 -4 -8 0 -15 4 -15 10 0 5 7 7 15 4 8 -4 15 -8 15 -10z m135 6
c3 -5 1 -10 -4 -10 -6 0 -11 5 -11 10 0 6 2 10 4 10 3 0 8 -4 11 -10z m905
-15 c0 -2 -10 -9 -22 -15 -22 -11 -22 -10 -4 4 21 17 26 19 26 11z m-854 -24
c-10 -4 -36 -6 -57 -4 -22 2 -39 -2 -39 -7 0 -6 -8 -10 -17 -11 -12 -1 -10 -4
7 -9 22 -7 20 -8 -15 -9 -32 0 -36 2 -22 10 26 15 20 30 -12 27 -23 -2 -28 -5
-21 -18 6 -12 4 -16 -11 -16 -14 0 -19 5 -16 18 4 13 0 18 -16 17 -12 0 -16
-3 -9 -6 6 -2 12 -12 12 -20 0 -12 -5 -10 -21 8 -19 23 -21 23 -34 6 -9 -12
-21 -16 -39 -13 -18 3 -26 0 -26 -10 0 -18 -14 -18 -29 0 -9 11 -8 15 6 21 15
7 13 9 -12 15 -16 4 65 7 180 8 116 0 202 -3 191 -7z m44 -22 c0 -10 -3 -19
-7 -19 -5 0 -8 11 -8 24 0 13 3 22 8 19 4 -2 7 -13 7 -24z m-430 2 c0 -6 -4
-12 -8 -15 -5 -3 -9 1 -9 9 0 8 4 15 9 15 4 0 8 -4 8 -9z m1221 -6 c11 6 11 5
2 -5 -12 -14 -33 -6 -33 13 0 8 3 7 9 -2 5 -8 14 -10 22 -6z m-838 -12 c-13
-2 -35 -2 -50 0 -16 2 -5 4 22 4 28 0 40 -2 28 -4z m-118 -54 c-37 -15 -106
-36 -77 -23 6 3 12 14 12 25 0 11 7 19 16 19 14 0 15 -2 3 -17 -12 -15 -12
-16 4 -10 10 4 24 7 30 7 7 0 6 5 -3 11 -12 8 -10 9 9 4 16 -5 21 -4 17 4 -5
7 -1 8 11 4 14 -6 10 -10 -22 -24z m-201 13 c3 -4 -9 -13 -26 -20 -30 -11 -30
-11 -13 8 19 21 31 25 39 12z m1347 -9 c9 -9 7 -11 -9 -6 -17 4 -20 1 -16 -19
2 -12 2 -17 -2 -10 -3 6 -10 10 -15 6 -13 -8 -11 10 3 24 9 9 8 12 -6 12 -9 0
-15 -4 -11 -9 9 -16 -13 -23 -32 -11 -17 11 -17 11 0 6 10 -3 15 -2 12 3 -3 6
-19 9 -35 9 -17 -1 -34 2 -38 7 -12 12 137 0 149 -12z m167 5 c12 -10 14 -10
8 0 -4 6 -3 12 3 12 5 0 12 -4 15 -9 3 -5 14 -7 25 -4 10 2 25 -2 33 -11 9 -8
18 -13 21 -10 10 11 37 -56 36 -88 -2 -52 -9 -68 -29 -68 -14 0 -17 5 -13 23
5 20 5 21 -8 4 -14 -17 -16 -17 -57 1 -23 10 -39 21 -36 25 3 3 -3 3 -15 0
-14 -4 -21 -1 -21 9 0 9 -9 14 -22 14 -16 -1 -23 5 -24 20 -1 27 -13 46 -24
39 -4 -3 -13 2 -20 10 -16 19 0 19 37 0 79 -41 163 -73 163 -61 0 15 -13 35
-20 31 -5 -3 -20 0 -34 6 -20 10 -23 15 -15 26 13 15 -2 18 -17 3 -7 -7 -21
-6 -44 3 -22 10 -28 16 -19 21 8 3 4 4 -7 2 -12 -2 -27 0 -33 4 -7 4 13 8 45
9 33 1 63 -4 72 -11z m-1608 -12 c0 -8 6 -16 13 -19 6 -2 0 -8 -15 -12 -31 -8
-36 -20 -13 -29 23 -8 30 -7 30 6 0 6 5 13 12 15 9 3 10 -4 3 -27 -10 -33 -37
-62 -55 -56 -5 1 -16 -4 -24 -12 -13 -12 -16 -10 -28 13 -11 21 -12 33 -2 63
16 52 79 98 79 58z m200 -11 c0 -14 -6 -26 -12 -27 -7 0 -17 -2 -23 -2 -5 -1
-15 -5 -21 -9 -7 -4 -14 0 -18 8 -7 19 -23 19 -23 0 0 -8 5 -15 11 -15 15 0
-16 -20 -32 -20 -7 0 -10 5 -6 12 4 7 3 8 -5 4 -6 -4 -9 -12 -6 -17 4 -5 4 -9
1 -9 -2 0 -13 -3 -23 -6 -14 -6 -16 -4 -6 6 6 7 9 18 6 25 -5 14 27 38 65 50
16 5 22 2 22 -10 0 -9 4 -14 10 -10 5 3 7 12 4 19 -5 13 10 22 44 25 6 0 12
-10 12 -24z m290 17 c0 -5 -33 -41 -73 -80 -58 -56 -78 -70 -95 -65 -15 3 -22
1 -22 -8 0 -11 -2 -11 -10 1 -5 8 -10 11 -10 5 0 -5 4 -16 9 -24 7 -11 11 -10
20 5 6 11 11 14 11 9 0 -6 -17 -28 -39 -49 -31 -30 -39 -34 -44 -21 -4 9 -1
18 8 21 8 4 12 10 9 15 -3 5 0 9 5 9 6 0 11 5 11 11 0 5 -5 7 -12 3 -24 -15 4
16 34 38 17 12 29 17 25 11 -4 -6 0 -13 8 -17 8 -3 15 -1 15 4 0 6 5 9 12 8 7
-2 12 3 13 10 0 6 5 12 10 13 19 2 35 22 35 45 0 13 4 24 10 24 5 0 7 -8 4
-17 -5 -15 -4 -15 4 -3 6 8 9 17 6 21 -2 4 0 10 6 14 5 3 10 1 10 -6 0 -8 4
-8 15 1 8 7 12 16 9 21 -3 5 0 9 5 9 6 0 11 -4 11 -8z m736 -24 c10 -12 13
-18 5 -13 -11 6 -13 4 -7 -11 5 -14 4 -16 -4 -8 -9 9 -23 54 -16 54 2 0 11
-10 22 -22z m-874 5 c-6 -2 -10 -9 -7 -13 3 -5 0 -12 -6 -16 -8 -4 -9 -3 -5 4
4 7 1 12 -9 12 -10 0 -15 -7 -13 -17 2 -13 -5 -19 -24 -21 -17 -2 -28 1 -28 9
0 8 -5 8 -17 -2 -15 -11 -16 -11 -6 1 12 13 98 48 118 48 6 0 4 -2 -3 -5z
m981 -29 c-3 -9 1 -14 12 -14 9 0 14 4 11 9 -4 5 2 7 12 4 14 -3 18 -11 14
-29 -5 -26 -16 -31 -28 -12 -4 7 -3 8 4 4 7 -4 12 -2 12 3 0 6 -9 11 -21 11
-12 0 -23 8 -26 20 -3 11 -10 17 -16 13 -6 -3 -7 -1 -3 5 9 16 36 3 29 -14z
m-804 3 c8 -11 6 -18 -9 -32 -11 -10 -20 -13 -20 -7 0 6 7 15 16 20 12 7 13
11 5 17 -7 4 -18 0 -24 -8 -7 -8 -21 -17 -32 -21 -14 -5 -11 1 10 18 35 30 39
30 54 13z m-129 0 c0 -2 -10 -12 -22 -23 l-23 -19 19 23 c18 21 26 27 26 19z
m789 -11 c9 -11 8 -15 -4 -20 -9 -3 -13 -11 -10 -16 5 -8 12 -7 23 2 15 12 16
11 3 -5 -19 -24 -45 -4 -30 24 6 13 6 19 -1 19 -5 0 -10 -4 -10 -10 0 -5 -4
-10 -10 -10 -5 0 -7 7 -4 15 8 19 28 19 43 1z m82 -3 c13 -16 12 -17 -3 -4
-17 13 -22 21 -14 21 2 0 10 -8 17 -17z m184 7 c3 -6 -1 -7 -9 -4 -18 7 -21
14 -7 14 6 0 13 -4 16 -10z m52 -16 c-3 -3 -12 -4 -19 -1 -8 3 -5 6 6 6 11 1
17 -2 13 -5z m-1321 -16 c4 -7 4 -10 -1 -6 -4 4 -17 3 -29 -3 -20 -10 -20 -10
-2 5 24 19 23 19 32 4z m1108 -11 c4 4 4 0 1 -9 -4 -9 -2 -19 4 -23 7 -4 11 3
11 16 0 12 3 19 8 15 4 -4 7 -13 7 -19 0 -7 5 -12 12 -12 20 0 23 -10 4 -22
-15 -10 -25 -4 -62 34 -28 29 -34 40 -18 30 14 -10 29 -14 33 -10z m149 4
c-13 -9 -10 -31 7 -41 8 -5 11 -10 5 -10 -5 1 -19 7 -29 15 -11 8 -15 15 -8
15 6 0 9 9 7 19 -3 14 1 18 12 14 8 -3 11 -9 6 -12z m-1178 0 c-14 -12 -73
-25 -60 -13 6 6 21 12 35 15 14 2 27 5 30 6 2 0 0 -3 -5 -8z m-140 -28 c0 -16
-2 -26 -5 -24 -3 2 -15 -1 -26 -7 -18 -10 -21 -9 -20 9 0 11 12 27 26 34 14 8
25 14 25 15 1 0 1 -12 0 -27z m363 15 c9 3 6 -4 -7 -17 -13 -13 -26 -20 -29
-16 -4 3 0 10 8 15 9 6 10 10 3 10 -7 0 -17 -8 -22 -17 -6 -10 -11 -15 -11
-10 0 17 25 46 33 38 5 -5 16 -7 25 -3z m79 -3 c0 -8 -46 -58 -101 -112 -55
-54 -90 -85 -78 -69 12 15 19 33 15 39 -3 5 -2 7 4 4 9 -6 63 34 63 46 0 3
-10 4 -22 2 -12 -3 -17 -1 -12 3 5 4 22 18 39 32 16 14 24 18 17 8 -23 -29 4
-28 31 1 27 30 25 50 -2 29 -10 -8 -9 -4 3 10 22 25 43 29 43 7z m602 -44 c0
-12 -2 -13 -6 -2 -14 34 -36 50 -57 40 -20 -10 -21 -10 -2 5 18 15 22 14 43
-6 13 -12 23 -29 22 -37z m88 -3 c-8 -5 -6 -13 8 -28 14 -15 20 -17 26 -8 4 7
3 16 -4 20 -6 4 -9 9 -6 12 3 3 51 -40 106 -97 56 -56 107 -101 113 -99 7 3 3
13 -11 28 -12 13 -19 27 -16 31 4 3 7 1 7 -5 0 -7 4 -12 8 -12 5 0 9 7 9 15 0
8 -6 15 -14 15 -15 0 -18 16 -4 24 13 8 44 -31 35 -45 -4 -7 -3 -10 3 -6 12 8
38 -19 47 -48 9 -31 -8 -80 -28 -79 -13 2 -14 -1 -5 -12 18 -22 2 -16 -19 7
-12 12 -18 30 -16 42 4 18 3 18 -3 4 -7 -14 -32 7 -145 120 -151 152 -159 160
-140 149 11 -7 16 4 13 29 -1 6 10 -3 23 -20 18 -20 22 -31 13 -37z m263 33
c0 -4 7 -8 15 -8 25 0 94 -35 91 -47 -2 -6 -1 -8 1 -3 3 4 10 7 17 7 18 0 76
-30 76 -39 0 -14 -36 -41 -45 -34 -4 5 -5 3 -1 -4 4 -7 -6 -18 -25 -27 -37
-18 -42 -19 -34 -7 3 5 1 13 -5 16 -6 4 -9 1 -8 -6 5 -24 -29 -20 -61 6 -30
26 -39 49 -23 59 12 7 53 -5 48 -13 -3 -4 11 -8 30 -8 19 -1 37 3 40 8 3 5 2
8 -3 7 -14 -4 -53 13 -53 23 0 6 -5 7 -12 3 -8 -5 -9 -2 -4 11 5 15 4 16 -9 5
-12 -10 -18 -11 -28 -1 -9 10 -8 11 8 5 18 -7 18 -6 6 9 -11 14 -17 15 -28 5
-13 -10 -14 -8 -11 12 2 19 -2 25 -17 26 -32 2 -36 3 -30 13 6 11 65 -6 65
-18z m-1340 -1 c-24 -15 -36 -11 -14 4 10 8 21 12 24 10 2 -3 -2 -9 -10 -14z
m233 -1 c-6 -6 -9 -19 -6 -28 4 -14 3 -14 -6 -1 -9 12 -11 11 -11 -8 0 -13 4
-20 10 -17 6 3 7 -1 4 -9 -7 -19 -6 -19 -39 -6 -17 7 -24 7 -20 0 3 -6 14 -10
22 -10 13 0 10 -7 -11 -29 -18 -19 -35 -27 -52 -25 -13 1 -22 -2 -18 -7 3 -5
10 -7 15 -4 14 9 11 -3 -8 -24 -9 -11 -21 -17 -26 -14 -6 3 -7 1 -4 -4 4 -6 0
-16 -8 -23 -12 -10 -15 -9 -15 7 0 10 5 24 10 29 7 7 6 11 -4 11 -8 0 -12 -5
-9 -10 3 -6 1 -7 -6 -3 -8 5 -1 18 21 41 25 24 36 30 46 23 9 -8 21 -7 40 2
25 12 26 13 7 20 -11 4 -27 3 -35 -3 -8 -6 -4 1 9 16 14 15 26 25 29 23 2 -3
17 11 34 30 17 19 33 34 36 34 3 0 1 -5 -5 -11z m-356 -16 c0 -10 -11 -31 -26
-47 -14 -16 -19 -25 -11 -20 32 19 85 33 93 25 5 -5 2 -8 -8 -8 -10 1 -19 -4
-21 -11 -1 -7 0 -8 3 -2 2 5 9 10 14 10 6 0 7 -5 4 -11 -4 -6 1 -5 13 2 10 7
19 19 18 28 -1 12 6 15 27 13 18 -2 26 1 22 7 -3 7 3 11 15 11 17 0 8 -12 -41
-52 -38 -32 -64 -48 -67 -40 -3 9 -9 9 -24 1 -11 -6 -29 -9 -39 -6 -10 3 -22
1 -25 -5 -11 -17 -55 33 -48 55 5 15 3 17 -7 11 -12 -6 -12 -5 0 9 14 18 47
24 36 7 -4 -6 -11 -7 -17 -4 -7 4 -8 2 -4 -5 6 -9 11 -9 22 0 7 6 19 9 26 6 7
-2 19 2 26 9 7 8 10 14 7 14 -3 0 -3 5 0 10 9 14 12 12 12 -7z m573 2 c10 -11
0 -26 -57 -79 -67 -65 -86 -76 -98 -56 -9 15 -25 2 -19 -15 3 -8 9 -14 12 -13
20 2 20 -4 2 -22 -11 -11 -24 -20 -29 -20 -5 0 -11 -4 -13 -10 -7 -21 -121
-129 -130 -124 -6 4 -14 0 -19 -7 -4 -8 -25 -15 -45 -15 -23 -1 -31 1 -23 6 7
5 17 6 22 3 5 -3 1 9 -7 26 -9 17 -19 31 -22 31 -2 0 0 -9 6 -19 15 -29 13
-32 -17 -25 -22 4 -25 3 -13 -5 8 -6 10 -11 4 -11 -5 0 -19 6 -30 14 -16 12
-17 17 -6 28 11 11 12 10 7 -7 -6 -19 -6 -19 8 -3 8 10 18 14 23 11 5 -4 4 -2
-3 6 -15 18 12 50 37 44 10 -3 21 0 24 6 4 6 2 11 -4 11 -6 0 -8 5 -5 10 4 6
11 8 16 4 5 -3 8 0 7 8 -2 7 4 13 12 13 9 0 14 -8 12 -20 -2 -16 -1 -17 7 -5
6 8 6 19 1 25 -12 14 30 60 58 62 13 1 20 -3 16 -8 -3 -6 -12 -8 -20 -5 -16 6
-19 -5 -4 -20 7 -7 -5 -25 -39 -57 -28 -26 -46 -47 -40 -47 6 0 7 -5 4 -11 -5
-7 3 -9 21 -7 19 2 30 10 33 23 3 20 3 20 -18 1 -39 -35 -21 -10 21 29 23 22
37 33 30 24 -9 -12 -9 -20 3 -35 13 -18 14 -18 9 6 -4 19 -3 22 5 10 5 -8 13
-11 17 -7 4 3 1 14 -6 22 -12 14 -3 27 66 96 73 74 156 145 126 107 -10 -13
-10 -17 1 -21 7 -3 20 0 28 7 20 14 21 49 2 42 -8 -3 -11 -1 -8 4 9 14 21 12
35 -5z m490 -5 c0 -5 -2 -10 -4 -10 -3 0 -8 5 -11 10 -3 6 -1 10 4 10 6 0 11
-4 11 -10z m370 0 c0 -5 -5 -10 -11 -10 -5 0 -7 5 -4 10 3 6 8 10 11 10 2 0 4
-4 4 -10z m-390 -41 c0 -5 -5 -9 -12 -9 -6 0 -8 3 -5 7 4 3 1 13 -6 22 -11 14
-10 14 6 2 9 -7 17 -17 17 -22z m183 -85 c-3 -9 0 -12 8 -9 8 3 37 -17 67 -44
46 -42 50 -49 32 -54 -23 -6 -27 -24 -5 -24 8 0 15 4 15 9 0 17 17 7 63 -39
50 -49 57 -67 31 -77 -27 -11 -37 -7 -24 9 7 9 10 18 6 22 -3 3 -6 1 -6 -5 0
-7 -6 -11 -12 -10 -7 2 -12 -5 -10 -14 2 -14 -4 -18 -28 -18 -29 0 -34 6 -31
40 0 10 -1 11 -5 3 -8 -19 -27 -16 -20 3 3 8 2 12 -4 9 -6 -3 -10 -13 -10 -22
0 -9 -22 6 -55 38 -30 29 -52 55 -49 58 3 3 11 -2 18 -11 10 -14 15 -15 25 -5
10 9 15 8 27 -7 7 -11 16 -17 20 -14 10 11 -33 46 -46 38 -16 -10 -55 11 -103
53 -34 31 -36 37 -28 61 6 14 8 26 4 26 -3 0 -3 3 0 7 4 3 32 -19 62 -50 40
-41 50 -56 38 -59 -14 -3 -14 -5 2 -18 11 -9 16 -10 11 -2 -17 29 23 9 59 -29
22 -23 35 -39 28 -35 -6 3 -14 2 -17 -3 -3 -4 4 -8 16 -7 20 1 31 -11 43 -48
10 -33 15 -11 5 24 -7 24 -6 36 1 41 8 5 8 8 0 13 -6 4 -15 5 -19 2 -11 -6
-53 40 -45 48 4 3 1 6 -5 6 -16 0 -102 81 -99 94 1 6 -2 10 -8 10 -5 -1 -18 7
-29 17 -18 17 -18 18 2 16 11 0 19 -4 16 -8 -2 -4 2 -9 10 -12 9 -4 13 0 12
11 -2 10 -14 18 -29 20 -15 2 -27 8 -27 14 0 5 8 7 18 4 12 -4 11 -1 -5 13
-13 11 -23 23 -23 27 0 5 24 -16 54 -45 32 -31 52 -59 49 -67z m76 99 c-6 -7
-9 -13 -5 -13 15 0 22 -2 33 -12 7 -6 11 -14 8 -18 -2 -4 4 -15 15 -25 19 -17
20 -17 21 1 1 10 1 23 -1 29 -1 5 8 1 20 -10 12 -11 18 -25 14 -34 -3 -9 -7
-22 -7 -29 -1 -18 -77 58 -77 77 0 8 -3 11 -7 8 -8 -8 -44 23 -38 33 2 4 11 7
19 7 12 0 13 -4 5 -14z m-677 -23 c-2 -16 -6 -30 -8 -30 -2 0 -4 14 -4 30 0
17 4 30 8 30 5 0 7 -13 4 -30z m484 8 l19 -23 -25 20 c-14 11 -27 21 -29 22
-2 2 0 3 6 3 5 0 18 -10 29 -22z m-938 -8 c-7 -10 -14 -17 -17 -15 -4 4 18 35
25 35 2 0 -1 -9 -8 -20z m487 -28 c-3 -3 -5 1 -5 9 0 12 -2 11 -11 -1 -9 -12
-10 -12 -5 3 3 10 6 24 7 30 0 7 5 1 10 -12 5 -13 7 -26 4 -29z m705 26 c0 -6
-6 -5 -15 2 -8 7 -15 14 -15 16 0 2 7 1 15 -2 8 -4 15 -11 15 -16z m40 13 c0
-5 7 -8 16 -7 9 0 18 -7 19 -17 3 -15 0 -15 -26 4 -31 21 -35 29 -19 29 6 0
10 -4 10 -9z m-406 -17 c3 -8 2 -12 -4 -9 -6 3 -10 10 -10 16 0 14 7 11 14 -7z
m-294 2 c0 -3 -4 -8 -10 -11 -5 -3 -10 -1 -10 4 0 6 5 11 10 11 6 0 10 -2 10
-4z m38 -218 c-1 -120 -4 -185 -7 -148 -4 45 -9 61 -15 51 -8 -12 -11 -11 -17
5 -5 11 -7 -4 -5 -39 2 -31 -1 -60 -6 -63 -5 -3 -8 73 -6 190 1 108 5 190 10
183 4 -8 5 -24 3 -36 -3 -19 -2 -21 10 -11 15 13 16 -4 1 -29 -6 -9 -5 -12 5
-9 10 3 14 22 14 61 0 32 3 57 8 57 4 0 6 -96 5 -212z m139 115 c0 -96 0 -97
-7 -28 -6 58 -3 125 4 125 1 0 2 -44 3 -97z m55 53 c2 -10 -4 -21 -12 -23 -13
-4 -13 -3 0 6 13 9 9 14 -10 13 -3 0 -5 10 -5 23 0 19 3 22 12 12 6 -7 13 -21
15 -31z m84 -26 c10 -12 9 -17 -4 -24 -9 -5 -18 -10 -19 -11 -2 -1 6 -19 17
-41 11 -23 19 -32 20 -21 0 10 -5 28 -11 39 -7 12 -7 18 -1 14 6 -3 12 -1 14
6 2 6 16 -15 32 -47 15 -32 25 -64 22 -71 -3 -8 -2 -14 3 -14 12 0 46 -82 43
-103 -2 -11 1 -16 6 -13 6 3 12 -1 15 -9 4 -10 1 -12 -11 -9 -10 4 -13 3 -6
-3 6 -4 14 -15 17 -23 4 -12 6 -11 6 3 1 10 5 16 10 13 5 -4 7 3 4 14 -4 14
-1 19 8 17 8 -2 11 -2 7 0 -4 3 -11 4 -15 4 -13 0 -74 172 -65 181 5 5 36 -23
71 -63 34 -39 60 -74 57 -76 -8 -8 -27 8 -21 17 3 5 1 11 -5 15 -5 3 -10 -1
-10 -9 0 -8 5 -18 10 -21 6 -4 8 -11 5 -16 -4 -5 1 -9 9 -9 22 0 27 -15 16
-45 -8 -21 -14 -25 -33 -20 -22 7 -22 7 -2 -8 20 -16 20 -16 -1 -36 -17 -15
-24 -17 -34 -8 -10 9 -12 8 -7 -5 3 -9 0 -19 -9 -22 -17 -6 -39 39 -28 56 4 7
2 8 -4 4 -7 -4 -12 -5 -12 -2 0 2 -3 13 -6 23 -5 15 -4 15 5 3 9 -12 11 -11
11 7 0 15 -5 21 -13 17 -9 -3 -23 15 -40 54 -15 33 -27 63 -27 68 0 4 -8 26
-19 48 -46 100 -52 118 -47 123 3 4 6 1 6 -5 0 -7 7 -12 15 -12 21 0 19 7 -10
38 -14 15 -25 22 -25 17 0 -12 -20 16 -20 29 0 10 53 -35 76 -64z m74 30 c-11
-7 -11 -10 -2 -10 10 0 10 -5 1 -22 -10 -18 -13 -19 -20 -6 -5 9 -6 30 -3 48
6 29 8 30 23 15 14 -14 14 -17 1 -25z m-60 20 c0 -5 -4 -10 -10 -10 -5 0 -10
5 -10 10 0 6 5 10 10 10 6 0 10 -4 10 -10z m24 -15 c-4 -8 -10 -13 -15 -10 -4
3 -6 12 -3 20 4 8 10 13 15 10 4 -3 6 -12 3 -20z m-938 7 c-2 -4 5 -14 17 -22
20 -12 21 -12 8 3 -7 10 -11 17 -8 17 3 0 12 3 21 6 28 11 18 -20 -17 -54 -18
-18 -37 -29 -41 -25 -4 4 -4 0 -1 -9 6 -15 47 -23 42 -8 -1 3 1 6 6 8 19 6 27
0 27 -23 0 -25 -23 -35 -35 -15 -3 6 -14 10 -23 9 -12 0 -11 -3 6 -9 21 -9 31
-30 14 -30 -5 0 -23 -14 -40 -31 l-32 -31 -20 23 c-43 52 -36 92 29 162 31 32
61 51 47 29z m212 -17 c-6 -14 -17 -25 -24 -25 -8 0 -4 10 9 25 28 31 29 31
15 0z m310 7 c16 12 16 11 1 -7 -10 -11 -19 -29 -22 -40 -2 -11 -5 -2 -5 20 0
22 2 34 5 27 4 -10 8 -10 21 0z m153 -9 c13 -16 12 -17 -3 -4 -17 13 -22 21
-14 21 2 0 10 -8 17 -17z m-781 -3 c-8 -5 -24 -9 -35 -9 -16 1 -16 2 5 9 35
11 48 11 30 0z m510 -44 c-8 -8 -9 -6 -4 9 7 20 7 20 -14 1 -25 -22 -29 -41
-8 -33 10 4 13 1 9 -8 -3 -8 -9 -13 -13 -10 -5 3 -11 1 -15 -5 -3 -5 -11 -10
-16 -10 -13 0 8 39 40 73 21 23 27 26 29 12 2 -10 -1 -22 -8 -29z m48 3 c-3
-8 -7 -3 -11 10 -4 17 -3 21 5 13 5 -5 8 -16 6 -23z m92 -1 c0 -5 -7 -3 -15 6
-8 8 -15 18 -15 22 0 3 7 1 15 -6 8 -7 15 -17 15 -22z m293 1 c4 -14 -1 -23
-16 -29 -16 -6 -17 -9 -6 -9 9 -1 20 -13 23 -27 4 -16 12 -24 21 -21 10 5 25
-11 25 -26 0 -1 -14 -2 -31 -3 -21 -1 -29 3 -25 12 3 8 1 24 -4 36 -8 21 -9
22 -10 3 -1 -16 -4 -14 -12 9 -9 23 -8 30 6 38 9 5 16 16 16 23 0 21 7 18 13
-6z m-29 3 c3 -5 -1 -9 -9 -9 -8 0 -15 4 -15 9 0 4 4 8 9 8 6 0 12 -4 15 -8z
m-388 -39 c-8 -15 -15 -25 -16 -21 0 12 23 58 27 54 3 -2 -2 -17 -11 -33z
m246 -65 c2 -31 0 -54 -4 -51 -5 2 -7 39 -7 81 2 80 6 68 11 -30z m-215 60
c-3 -8 -6 -5 -6 6 -1 11 2 17 5 13 3 -3 4 -12 1 -19z m53 7 c-7 -9 -15 -13
-17 -11 -7 7 7 26 19 26 6 0 6 -6 -2 -15z m40 -114 c0 -105 -3 -130 -15 -135
-8 -3 -14 0 -12 6 1 6 -3 12 -9 15 -6 2 -11 -11 -12 -33 -1 -20 -4 -39 -7 -42
-3 -3 -5 58 -5 135 0 116 3 143 16 154 13 10 17 10 25 -2 7 -11 9 -9 9 9 0 12
2 22 5 22 3 0 5 -58 5 -129z m318 84 c-3 -3 -9 2 -12 12 -6 14 -5 15 5 6 7 -7
10 -15 7 -18z m-499 -22 c-6 -15 -14 -32 -18 -38 -5 -5 -11 -23 -15 -38 -4
-15 -11 -25 -16 -22 -5 3 -12 0 -16 -6 -4 -8 -3 -9 4 -5 14 8 15 -3 3 -23 -5
-8 -16 -11 -30 -6 -21 6 -22 7 -4 22 10 8 13 12 6 9 -7 -4 -6 4 3 24 15 30 28
42 18 17 -3 -8 2 -14 11 -14 17 0 20 18 5 33 -17 17 5 62 32 67 13 2 24 5 25
6 1 0 -2 -11 -8 -26z m75 12 c-4 -8 -10 -15 -16 -15 -5 0 -7 -4 -4 -9 4 -5 3
-16 0 -25 -6 -15 -7 -15 -19 0 -14 19 -31 3 -21 -21 2 -7 0 -16 -7 -19 -7 -2
-4 -5 6 -5 9 -1 17 -5 17 -10 0 -5 -9 -7 -20 -4 -16 4 -18 11 -13 32 8 33 43
91 43 71 0 -12 3 -11 17 3 21 21 24 21 17 2z m293 -32 c-3 -10 -5 -2 -5 17 0
19 2 27 5 18 2 -10 2 -26 0 -35z m-447 -4 c-7 -11 -14 -18 -17 -15 -8 8 5 36
17 36 7 0 7 -6 0 -21z m-29 -62 c-9 -9 -11 -8 -5 6 5 15 3 16 -19 8 -21 -8
-25 -7 -21 4 3 7 12 11 20 8 10 -4 12 0 8 13 -5 14 -2 13 11 -4 13 -18 15 -26
6 -35z m192 -126 c-5 -3 -16 -18 -26 -33 -10 -16 -24 -28 -32 -28 -8 0 -15 -5
-15 -11 0 -6 7 -8 18 -4 13 5 14 3 6 -5 -14 -14 -94 -17 -116 -4 -15 8 -15 12
0 43 10 19 22 34 27 34 6 0 15 6 20 14 8 10 10 8 11 -12 2 -21 -2 -24 -22 -21
-29 6 -32 -10 -4 -19 11 -3 20 -13 20 -21 0 -9 -5 -12 -12 -8 -7 4 -8 3 -4 -5
9 -14 26 -5 26 15 0 8 8 14 18 15 15 0 15 1 0 7 -14 6 -15 11 -3 39 12 29 34
38 51 20 11 -11 34 -8 34 3 0 6 -13 13 -30 17 -31 6 -38 17 -18 29 7 4 8 3 4
-4 -5 -8 2 -12 18 -12 17 0 26 6 26 16 0 8 -4 13 -8 10 -5 -3 -9 1 -9 9 0 8 4
12 10 8 5 -3 8 12 7 33 -1 22 -1 44 1 49 2 6 5 -30 6 -79 2 -49 0 -92 -4 -95z
m423 124 c0 -30 -4 -49 -8 -42 -4 6 -5 20 -2 31 4 11 2 16 -4 12 -5 -3 -12 4
-15 16 -7 25 -1 38 16 38 8 0 12 -19 13 -55z m-134 -3 c-2 -35 -1 -36 13 -18
20 26 19 12 -1 -19 -15 -23 -15 -25 1 -31 13 -5 14 -9 3 -15 -24 -16 -27 -9
-26 61 1 39 4 68 7 65 3 -3 4 -22 3 -43z m81 21 c2 -10 8 -27 12 -38 5 -14 4
-16 -3 -7 -5 8 -13 12 -18 10 -5 -1 -9 9 -9 25 -1 30 10 36 18 10z m89 -8 c12
-15 9 -22 -9 -29 -10 -4 -14 -4 -11 0 4 4 3 15 -3 25 -7 15 -7 19 3 17 7 -2
16 -7 20 -13z m-472 -10 c0 -8 -4 -15 -10 -15 -5 0 -7 7 -4 15 4 8 8 15 10 15
2 0 4 -7 4 -15z m-249 -18 c-10 -9 -11 -8 -5 6 3 10 9 15 12 12 3 -3 0 -11 -7
-18z m39 9 c0 -3 -4 -8 -10 -11 -5 -3 -10 -1 -10 4 0 6 5 11 10 11 6 0 10 -2
10 -4z m8 -44 c-7 -18 -18 -30 -24 -28 -6 2 -16 0 -20 -4 -5 -5 -15 -5 -23 0
-12 7 -12 13 -4 32 7 13 12 17 12 10 1 -7 6 -10 13 -6 7 4 8 3 4 -5 -4 -6 -12
-9 -17 -6 -5 4 -9 2 -9 -4 0 -30 49 -5 63 33 4 10 10 17 12 14 3 -2 -1 -19 -7
-36z m145 32 c9 -10 -21 -69 -35 -66 -7 2 -18 -5 -26 -15 -13 -16 -13 -16 -7
7 8 26 22 40 42 40 7 0 10 7 6 16 -5 13 -7 13 -14 2 -5 -7 -9 -8 -9 -2 0 21
28 33 43 18z m303 -61 c8 -3 14 -10 14 -15 0 -6 -7 -4 -16 3 -15 13 -17 11
-12 -19 2 -17 1 -32 -3 -32 -4 0 -7 30 -6 68 0 37 3 52 5 34 2 -18 10 -36 18
-39z m252 32 c9 -18 7 -20 -23 -20 l-32 0 21 22 c11 12 21 21 22 20 1 -1 6
-11 12 -22z m-238 0 c0 -8 -4 -15 -10 -15 -5 0 -7 7 -4 15 4 8 8 15 10 15 2 0
4 -7 4 -15z m118 -15 c-1 -16 -6 -30 -11 -30 -5 0 -6 7 -3 16 3 9 6 22 6 30 0
8 2 14 5 14 3 0 4 -13 3 -30z m392 20 c0 -5 -2 -10 -4 -10 -3 0 -8 5 -11 10
-3 6 -1 10 4 10 6 0 11 -4 11 -10z m-360 -9 c0 -6 -4 -12 -8 -15 -5 -3 -9 1
-9 9 0 8 4 15 9 15 4 0 8 -4 8 -9z m-560 -26 c1 11 4 15 6 8 3 -6 -2 -24 -11
-40 -9 -15 -14 -20 -11 -11 3 10 1 20 -5 23 -5 4 -6 11 -3 17 4 6 2 8 -3 5 -7
-5 -8 -20 -2 -44 16 -73 -39 -76 -83 -5 l-20 32 26 -9 c16 -7 27 -7 31 0 4 5
11 6 17 3 6 -4 8 -2 4 4 -3 6 4 18 16 27 22 15 23 14 30 -7 5 -21 6 -21 8 -3z
m595 -70 c1 -11 5 -19 8 -17 4 1 12 2 18 2 6 0 8 9 4 20 -4 11 -2 20 4 20 6 0
11 7 11 15 0 8 6 15 14 15 17 0 60 -106 52 -127 -9 -23 -126 -15 -126 9 0 6 6
5 15 -2 21 -18 19 -7 -5 20 -16 18 -20 20 -20 7 0 -24 -15 -21 -34 8 -19 28
-18 78 1 70 7 -3 20 -8 28 -11 11 -5 13 -2 9 10 -3 9 -10 13 -15 10 -5 -3 -6
3 -2 12 5 14 9 11 21 -12 9 -16 16 -38 17 -49z m28 48 c-3 -7 -6 -13 -8 -13
-2 0 -5 6 -8 13 -3 8 1 14 8 14 7 0 11 -6 8 -14z m-147 -17 c17 -18 18 -39 2
-33 -7 2 -12 10 -10 16 3 15 -15 14 -21 -1 -3 -7 -4 -3 -4 10 1 25 12 28 33 8z
m-201 -62 c7 -8 21 -11 30 -7 15 5 17 0 13 -35 -2 -23 1 -42 6 -42 4 0 6 23 4
50 -3 28 -1 50 4 50 5 0 8 -24 6 -52 l-3 -53 -33 2 c-55 2 -94 53 -41 53 23 0
21 21 -2 28 -11 3 -12 2 -1 -6 11 -7 8 -11 -12 -14 -14 -3 -26 -4 -26 -2 0 1
-3 11 -6 21 -5 15 -4 16 5 3 10 -13 12 -13 21 0 5 8 10 29 11 45 l2 30 4 -29
c3 -16 11 -35 18 -42z m35 19 c-11 -17 -11 -17 -6 0 3 10 6 24 7 30 0 9 2 9 5
0 3 -7 0 -20 -6 -30z m133 -10 c37 2 46 -18 22 -48 -16 -20 -16 -20 -6 1 7 16
6 23 -9 32 -16 10 -18 9 -13 -5 4 -11 3 -14 -5 -9 -16 10 -15 -7 1 -23 10 -10
8 -15 -7 -27 -32 -23 -56 -18 -56 12 0 14 4 23 10 19 14 -9 12 7 -5 29 -13 17
-12 21 8 40 l22 21 3 -22 c3 -17 9 -21 35 -20z m-279 13 c-3 -9 -10 -16 -15
-16 -5 0 -4 9 3 20 14 22 21 20 12 -4z m76 14 c0 -5 -5 -10 -11 -10 -5 0 -7 5
-4 10 3 6 8 10 11 10 2 0 4 -4 4 -10z"/>
<path d="M1980 1250 c0 -5 5 -10 11 -10 5 0 7 5 4 10 -3 6 -8 10 -11 10 -2 0
-4 -4 -4 -10z"/>
<path d="M2050 1199 c0 -5 5 -7 10 -4 6 3 10 8 10 11 0 2 -4 4 -10 4 -5 0 -10
-5 -10 -11z"/>
<path d="M2026 1175 c-3 -8 -1 -15 4 -15 6 0 10 7 10 15 0 8 -2 15 -4 15 -2 0
-6 -7 -10 -15z"/>
<path d="M397 1215 c-4 -8 -2 -17 3 -20 6 -4 10 3 10 14 0 25 -6 27 -13 6z"/>
<path d="M2010 1099 c0 -5 5 -7 10 -4 6 3 10 8 10 11 0 2 -4 4 -10 4 -5 0 -10
-5 -10 -11z"/>
<path d="M2180 1050 c6 -11 13 -20 16 -20 2 0 0 9 -6 20 -6 11 -13 20 -16 20
-2 0 0 -9 6 -20z"/>
<path d="M2003 1043 c4 -3 2 -12 -4 -20 -9 -9 -8 -13 0 -13 6 0 11 2 11 4 0 2
3 11 6 20 4 10 1 16 -7 16 -7 0 -9 -3 -6 -7z"/>
<path d="M430 1090 c0 -5 -7 -10 -15 -10 -8 0 -15 -4 -15 -8 0 -5 13 -7 29 -4
20 3 28 8 24 18 -6 16 -23 19 -23 4z"/>
<path d="M633 1085 c0 -8 4 -15 9 -15 4 0 8 7 8 15 0 8 -4 15 -8 15 -5 0 -9
-7 -9 -15z"/>
<path d="M530 1060 c-9 -6 -10 -10 -3 -10 6 0 15 5 18 10 8 12 4 12 -15 0z"/>
<path d="M716 895 c-11 -8 -15 -15 -9 -15 6 0 16 7 23 15 16 19 11 19 -14 0z"/>
<path d="M740 1050 c-12 -7 -10 -9 7 -7 12 0 19 5 17 9 -6 10 -6 10 -24 -2z"/>
<path d="M555 979 c-4 -6 -5 -12 -2 -15 2 -3 7 2 10 11 7 17 1 20 -8 4z"/>
<path d="M930 920 c0 -5 5 -10 11 -10 5 0 7 5 4 10 -3 6 -8 10 -11 10 -2 0 -4
-4 -4 -10z"/>
<path d="M1763 894 c0 -16 13 -19 21 -5 3 5 0 11 -7 14 -8 3 -14 -1 -14 -9z"/>
<path d="M1790 866 c0 -8 14 -24 30 -36 17 -12 30 -18 30 -14 0 3 7 1 15 -6
10 -9 12 -16 6 -20 -6 -3 6 -22 29 -45 l39 -38 -8 29 c-5 19 -15 30 -30 32
-14 2 -21 9 -18 17 3 7 -14 31 -38 54 -47 45 -55 49 -55 27z m130 -116 c0 -5
-2 -10 -4 -10 -3 0 -8 5 -11 10 -3 6 -1 10 4 10 6 0 11 -4 11 -10z"/>
<path d="M2003 725 c0 -8 4 -15 9 -15 4 0 8 4 8 9 0 6 -4 12 -8 15 -5 3 -9 -1
-9 -9z"/>
<path d="M1994 882 c3 -5 0 -13 -6 -15 -9 -4 -10 -6 -1 -6 17 -1 25 16 12 25
-7 4 -9 3 -5 -4z"/>
<path d="M613 925 c0 -8 4 -12 9 -9 5 3 6 10 3 15 -9 13 -12 11 -12 -6z"/>
<path d="M443 894 c-3 -8 -1 -20 5 -26 7 -7 10 -2 9 16 -2 30 -5 32 -14 10z"/>
<path d="M966 881 c-23 -23 -34 -41 -27 -45 25 -16 88 43 74 68 -7 14 -15 10
-47 -23z m44 16 c0 -2 -10 -12 -22 -23 l-23 -19 19 23 c18 21 26 27 26 19z"/>
<path d="M879 794 c-13 -14 -17 -23 -9 -19 13 5 46 45 37 45 -2 0 -14 -11 -28
-26z"/>
<path d="M765 780 c-4 -6 -3 -16 3 -22 13 -13 23 4 13 21 -7 10 -10 10 -16 1z"/>
<path d="M900 779 c0 -5 5 -7 10 -4 6 3 10 8 10 11 0 2 -4 4 -10 4 -5 0 -10
-5 -10 -11z"/>
<path d="M846 745 c4 -8 8 -15 10 -15 2 0 4 7 4 15 0 8 -4 15 -10 15 -5 0 -7
-7 -4 -15z"/>
<path d="M789 718 c0 -2 -2 -16 -3 -31 -1 -16 -8 -32 -16 -37 -8 -5 -12 -11
-9 -14 3 -3 17 8 32 23 22 24 24 30 11 35 -8 3 -12 10 -9 16 3 5 4 10 1 10 -3
0 -6 -1 -7 -2z"/>
<path d="M1634 825 c3 -8 1 -15 -4 -15 -6 0 -10 -5 -10 -10 0 -6 10 -8 24 -4
14 3 27 1 32 -7 5 -9 2 -10 -9 -6 -19 7 -23 -8 -6 -19 19 -12 28 18 13 42 -18
27 -49 42 -40 19z"/>
<path d="M1730 806 c0 -2 7 -9 15 -16 13 -11 14 -10 9 4 -5 14 -24 23 -24 12z"/>
<path d="M1776 795 c13 -10 15 -14 5 -15 -8 0 -12 -3 -8 -6 3 -3 11 -3 17 1
13 8 -5 35 -23 35 -6 0 -2 -7 9 -15z"/>
<path d="M1691 754 c0 -11 3 -14 6 -6 3 7 2 16 -1 19 -3 4 -6 -2 -5 -13z"/>
<path d="M1796 761 c-3 -5 1 -12 10 -15 20 -8 29 -1 19 13 -8 13 -22 14 -29 2z"/>
<path d="M1765 650 c3 -5 10 -10 16 -10 5 0 9 5 9 10 0 6 -7 10 -16 10 -8 0
-12 -4 -9 -10z"/>
<path d="M1900 645 c0 -8 2 -15 4 -15 2 0 6 7 10 15 3 8 1 15 -4 15 -6 0 -10
-7 -10 -15z"/>
<path d="M1906 867 c3 -10 9 -15 12 -12 3 3 0 11 -7 18 -10 9 -11 8 -5 -6z"/>
<path d="M1226 764 c-20 -20 -21 -38 -1 -30 8 3 15 1 15 -5 0 -5 -7 -12 -15
-16 -22 -8 -16 -90 6 -96 13 -4 16 8 17 79 1 46 0 84 -2 84 -3 0 -12 -7 -20
-16z m14 -94 c0 -5 -4 -10 -10 -10 -5 0 -10 5 -10 10 0 6 5 10 10 10 6 0 10
-4 10 -10z"/>
<path d="M1550 771 c0 -5 5 -13 10 -16 6 -3 10 -2 10 4 0 5 -4 13 -10 16 -5 3
-10 2 -10 -4z"/>
<path d="M1574 722 c4 -7 1 -12 -7 -12 -10 0 -13 -7 -10 -20 3 -11 9 -18 13
-15 13 8 19 45 8 52 -7 3 -8 1 -4 -5z"/>
<path d="M1636 720 c5 -8 9 -19 11 -25 1 -5 6 -23 11 -40 l9 -30 5 28 c4 22
-1 35 -19 55 -14 15 -21 20 -17 12z"/>
<path d="M1570 650 c0 -5 5 -10 11 -10 5 0 7 -5 3 -12 -4 -6 -3 -8 2 -5 14 8
38 -9 30 -22 -4 -6 -12 -9 -17 -6 -5 4 -4 -5 3 -19 6 -14 18 -26 27 -26 11 0
10 3 -5 14 -16 13 -17 17 -5 28 12 11 13 10 8 -4 -4 -10 -2 -18 3 -18 31 0
-21 88 -52 90 -5 0 -8 -4 -8 -10z"/>
<path d="M1685 621 c3 -5 0 -11 -5 -13 -7 -2 -5 -11 5 -23 13 -18 14 -18 9 -1
-4 10 -2 21 5 26 9 5 8 9 -4 13 -9 4 -14 3 -10 -2z"/>
<path d="M600 845 c-11 -13 -10 -14 4 -9 9 3 16 10 16 15 0 13 -6 11 -20 -6z"/>
<path d="M580 795 c0 -8 4 -15 10 -15 5 0 7 7 4 15 -4 8 -8 15 -10 15 -2 0 -4
-7 -4 -15z"/>
<path d="M545 770 c-3 -5 -2 -10 4 -10 5 0 13 5 16 10 3 6 2 10 -4 10 -5 0
-13 -4 -16 -10z"/>
<path d="M671 764 c0 -11 3 -14 6 -6 3 7 2 16 -1 19 -3 4 -6 -2 -5 -13z"/>
<path d="M549 742 c9 -7 10 -11 2 -15 -7 -4 -8 -5 0 -3 15 2 13 20 -3 24 -10
3 -10 2 1 -6z"/>
<path d="M620 724 c0 -8 5 -12 10 -9 6 4 8 11 5 16 -9 14 -15 11 -15 -7z"/>
<path d="M1148 733 c-15 -4 -18 -16 -17 -76 1 -40 3 -64 6 -54 2 9 11 17 19
17 17 0 17 5 3 32 -9 16 -8 23 2 29 11 7 11 9 -2 9 -9 0 -16 7 -16 15 0 11 4
12 14 4 10 -9 13 -7 13 10 0 11 -1 20 -2 20 -2 -1 -11 -3 -20 -6z"/>
<path d="M1145 559 c22 -23 20 -23 22 -1 1 11 -6 18 -19 19 -19 2 -19 1 -3
-18z"/>
<path d="M957 708 c-3 -10 -1 -21 4 -24 5 -3 9 2 9 10 0 9 5 16 10 16 6 0 10
4 10 8 0 17 -29 8 -33 -10z"/>
<path d="M1030 711 c0 -5 5 -13 10 -16 6 -3 10 -2 10 4 0 5 -4 13 -10 16 -5 3
-10 2 -10 -4z"/>
<path d="M1010 515 c0 -8 9 -15 20 -15 11 0 20 2 20 5 0 2 -9 9 -20 15 -16 9
-20 8 -20 -5z"/>
<path d="M925 440 c-3 -5 -1 -10 4 -10 6 0 11 5 11 10 0 6 -2 10 -4 10 -3 0
-8 -4 -11 -10z"/>
<path d="M975 560 c3 -5 8 -10 11 -10 2 0 4 5 4 10 0 6 -5 10 -11 10 -5 0 -7
-4 -4 -10z"/>
<path d="M860 509 c0 -5 5 -7 10 -4 6 3 10 8 10 11 0 2 -4 4 -10 4 -5 0 -10
-5 -10 -11z"/>
<path d="M835 480 c3 -5 8 -10 11 -10 2 0 4 5 4 10 0 6 -5 10 -11 10 -5 0 -7
-4 -4 -10z"/>
<path d="M860 480 c0 -5 5 -10 10 -10 6 0 10 5 10 10 0 6 -4 10 -10 10 -5 0
-10 -4 -10 -10z"/>
<path d="M1572 513 c2 -11 -2 -17 -10 -15 -8 1 -11 -2 -7 -8 5 -8 11 -8 19 -1
7 6 16 7 21 3 4 -4 2 3 -4 16 -14 26 -23 29 -19 5z"/>
<path d="M1450 491 c0 -27 15 -34 31 -15 10 12 10 15 -2 12 -8 -2 -13 3 -11
10 1 6 -2 12 -8 12 -5 0 -10 -9 -10 -19z"/>
<path d="M1575 462 c-6 -4 -10 -13 -9 -19 1 -7 2 -17 3 -23 0 -5 6 -10 12 -10
5 0 8 4 4 9 -3 5 5 12 17 14 l23 4 -22 2 c-27 1 -30 18 -5 24 12 3 13 5 2 6
-8 0 -20 -3 -25 -7z"/>
<path d="M1212 419 c-9 -14 -20 -19 -34 -15 -19 4 -20 3 -6 -10 20 -20 58 -3
58 26 0 25 -2 25 -18 -1z"/>
<path d="M1300 463 c0 -5 7 -16 14 -26 11 -14 15 -15 19 -4 3 8 0 20 -6 26
-13 13 -27 15 -27 4z"/>
<path d="M1323 395 c0 -7 6 -11 14 -8 7 3 13 6 13 8 0 2 -6 5 -13 8 -8 3 -14
-1 -14 -8z"/>
</g>
</svg>
